<svg width="63" height="61" viewBox="0 0 63 61" fill="none" xmlns="http://www.w3.org/2000/svg">
<path d="M25.7351 12.7082C23.6166 12.7082 21.8993 14.4255 21.8993 16.5439V23.5091L21.896 23.505C21.8219 25.0867 20.516 26.3464 18.9159 26.3464C17.3159 26.3464 16.01 25.0867 15.9359 23.505L15.9326 23.5091V21.6583C15.9326 19.5398 14.2153 17.8225 12.0968 17.8225C9.97842 17.8225 8.26109 19.5398 8.26109 21.6583V38.706C8.26109 40.8245 9.97842 42.5418 12.0968 42.5418C14.2153 42.5418 15.9326 40.8245 15.9326 38.706V37.0013C15.9326 35.3536 17.2683 34.0179 18.9159 34.0179C20.5636 34.0179 21.8993 35.3536 21.8993 37.0013V43.8204C21.8993 45.9388 23.6166 47.6561 25.7351 47.6561C27.8535 47.6561 29.5708 45.9388 29.5708 43.8204V16.5439C29.5708 14.4255 27.8535 12.7082 25.7351 12.7082Z" fill="#37C25E"/>
<path d="M37.6688 12.7082C39.7872 12.7082 41.5045 14.4255 41.5045 16.5439V23.5091L41.5078 23.505C41.5819 25.0867 42.8878 26.3464 44.4879 26.3464C46.0879 26.3464 47.3938 25.0867 47.4679 23.505L47.4712 23.5091V21.6583C47.4712 19.5398 49.1885 17.8225 51.307 17.8225C53.4254 17.8225 55.1427 19.5398 55.1427 21.6583V38.706C55.1427 40.8245 53.4254 42.5418 51.307 42.5418C49.1885 42.5418 47.4712 40.8245 47.4712 38.706V37.0013C47.4712 35.3536 46.1355 34.0179 44.4879 34.0179C42.8402 34.0179 41.5045 35.3536 41.5045 37.0013V43.8204C41.5045 45.9388 39.7872 47.6561 37.6688 47.6561C35.5503 47.6561 33.833 45.9388 33.833 43.8204V16.5439C33.833 14.4255 35.5503 12.7082 37.6688 12.7082Z" fill="#37C25E"/>
</svg>
